<svg width="311" height="16" viewBox="0 0 311 16" fill="none" xmlns="http://www.w3.org/2000/svg">
<path d="M6.94034 13.1932C5.92614 13.1932 5.02959 13.054 4.25071 12.7756C3.47183 12.5005 2.81724 12.0945 2.28693 11.5575C1.75663 11.0206 1.35559 10.3627 1.08381 9.58381C0.812027 8.80492 0.676136 7.91335 0.676136 6.90909C0.676136 5.93797 0.813684 5.0696 1.08878 4.30398C1.36719 3.53835 1.76989 2.88873 2.29688 2.35511C2.82718 1.81818 3.47017 1.40885 4.22585 1.12713C4.98485 0.845407 5.84328 0.704545 6.80114 0.704545C7.73248 0.704545 8.54782 0.857007 9.24716 1.16193C9.94981 1.46354 10.5365 1.87287 11.0071 2.38991C11.4811 2.90365 11.8357 3.48201 12.071 4.125C12.3097 4.76799 12.429 5.43087 12.429 6.11364C12.429 6.59422 12.4058 7.08144 12.3594 7.57528C12.313 8.06913 12.2152 8.5232 12.0661 8.9375C11.9169 9.34848 11.6866 9.67992 11.375 9.93182C11.0668 10.1837 10.6491 10.3097 10.1222 10.3097C9.89015 10.3097 9.63494 10.2732 9.35653 10.2003C9.07812 10.1274 8.8312 10.0064 8.61577 9.83736C8.40033 9.66832 8.27273 9.44129 8.23295 9.15625H8.1733C8.09375 9.34848 7.97112 9.53078 7.8054 9.70312C7.64299 9.87547 7.42921 10.013 7.16406 10.1158C6.90223 10.2185 6.58239 10.2633 6.20455 10.25C5.77367 10.2334 5.39418 10.1373 5.06605 9.96165C4.73793 9.78267 4.46283 9.54072 4.24077 9.2358C4.02202 8.92756 3.8563 8.57126 3.74361 8.1669C3.63423 7.75923 3.57955 7.32008 3.57955 6.84943C3.57955 6.40199 3.64583 5.99266 3.77841 5.62145C3.91098 5.25024 4.09493 4.92543 4.33026 4.64702C4.56889 4.36861 4.8473 4.14654 5.16548 3.98082C5.48698 3.81179 5.83333 3.70739 6.20455 3.66761C6.53599 3.63447 6.83759 3.64938 7.10938 3.71236C7.38116 3.77202 7.60488 3.86316 7.78054 3.9858C7.9562 4.10511 8.06724 4.23769 8.11364 4.38352H8.1733V3.8267H9.22727V8.32102C9.22727 8.59943 9.30516 8.8447 9.46094 9.05682C9.61671 9.26894 9.84375 9.375 10.142 9.375C10.4801 9.375 10.7386 9.259 10.9176 9.02699C11.0999 8.79498 11.2242 8.43703 11.2905 7.95312C11.3601 7.46922 11.3949 6.84943 11.3949 6.09375C11.3949 5.64962 11.3336 5.21212 11.2109 4.78125C11.0916 4.34706 10.9093 3.94105 10.6641 3.56321C10.4221 3.18537 10.1155 2.85227 9.74432 2.56392C9.37311 2.27557 8.93726 2.05019 8.43679 1.88778C7.93963 1.72206 7.37453 1.6392 6.74148 1.6392C5.96259 1.6392 5.26491 1.76018 4.64844 2.00213C4.03527 2.24077 3.51326 2.59044 3.08239 3.05114C2.65483 3.50852 2.32836 4.06534 2.10298 4.72159C1.88092 5.37453 1.76989 6.11695 1.76989 6.94886C1.76989 7.79403 1.88092 8.54474 2.10298 9.20099C2.32836 9.85724 2.6598 10.4107 3.0973 10.8615C3.53812 11.3123 4.08333 11.6553 4.73295 11.8906C5.38258 12.1226 6.13163 12.2386 6.98011 12.2386C7.3447 12.2386 7.70431 12.2038 8.05895 12.1342C8.41359 12.0646 8.7268 11.9884 8.99858 11.9055C9.27036 11.8227 9.46591 11.7614 9.58523 11.7216L9.86364 12.6364C9.65814 12.7225 9.38968 12.8087 9.05824 12.8949C8.73011 12.9811 8.37879 13.0523 8.00426 13.1087C7.63305 13.165 7.27841 13.1932 6.94034 13.1932ZM6.36364 9.2358C6.80777 9.2358 7.16738 9.14631 7.44247 8.96733C7.71757 8.78835 7.91809 8.51823 8.04403 8.15696C8.16998 7.79569 8.23295 7.33996 8.23295 6.78977C8.23295 6.23295 8.16335 5.79877 8.02415 5.48722C7.88494 5.17566 7.67945 4.95691 7.40767 4.83097C7.13589 4.70502 6.80114 4.64205 6.40341 4.64205C6.02557 4.64205 5.70242 4.74148 5.43395 4.94034C5.1688 5.13589 4.96496 5.39773 4.82244 5.72585C4.68324 6.05066 4.61364 6.4053 4.61364 6.78977C4.61364 7.21401 4.66998 7.6134 4.78267 7.98793C4.89536 8.35914 5.07931 8.66075 5.33452 8.89276C5.58973 9.12145 5.93277 9.2358 6.36364 9.2358ZM18.1028 12V11.1051L21.4636 7.42614C21.858 6.99526 22.1828 6.62074 22.438 6.30256C22.6932 5.98106 22.8822 5.67945 23.0048 5.39773C23.1307 5.11269 23.1937 4.81439 23.1937 4.50284C23.1937 4.14489 23.1075 3.83499 22.9352 3.57315C22.7662 3.31132 22.5342 3.10914 22.2392 2.96662C21.9442 2.8241 21.6127 2.75284 21.2449 2.75284C20.8538 2.75284 20.5124 2.83404 20.2207 2.99645C19.9324 3.15554 19.7086 3.37926 19.5495 3.66761C19.3938 3.95597 19.3159 4.29403 19.3159 4.68182H18.1426C18.1426 4.08523 18.2801 3.56155 18.5552 3.1108C18.8303 2.66004 19.2048 2.30871 19.6788 2.05682C20.1561 1.80492 20.6913 1.67898 21.2846 1.67898C21.8812 1.67898 22.4099 1.80492 22.8706 2.05682C23.3313 2.30871 23.6925 2.64844 23.9544 3.07599C24.2162 3.50355 24.3471 3.97917 24.3471 4.50284C24.3471 4.87737 24.2792 5.24361 24.1433 5.60156C24.0107 5.9562 23.7787 6.35227 23.4473 6.78977C23.1191 7.22396 22.6634 7.75426 22.0801 8.38068L19.7931 10.8267V10.9062H24.5261V12H18.1028ZM29.9004 12.1392C29.1513 12.1392 28.5133 11.9354 27.9863 11.5277C27.4593 11.1167 27.0566 10.5218 26.7782 9.7429C26.4998 8.9607 26.3606 8.0161 26.3606 6.90909C26.3606 5.80871 26.4998 4.86908 26.7782 4.0902C27.06 3.308 27.4643 2.71141 27.9913 2.30043C28.5216 1.88613 29.158 1.67898 29.9004 1.67898C30.6428 1.67898 31.2775 1.88613 31.8045 2.30043C32.3348 2.71141 32.7392 3.308 33.0176 4.0902C33.2993 4.86908 33.4402 5.80871 33.4402 6.90909C33.4402 8.0161 33.301 8.9607 33.0225 9.7429C32.7441 10.5218 32.3414 11.1167 31.8145 11.5277C31.2875 11.9354 30.6494 12.1392 29.9004 12.1392ZM29.9004 11.0455C30.6428 11.0455 31.2195 10.6875 31.6305 9.97159C32.0415 9.25568 32.247 8.23485 32.247 6.90909C32.247 6.02746 32.1525 5.27675 31.9636 4.65696C31.778 4.03717 31.5095 3.56487 31.1582 3.24006C30.8102 2.91525 30.3909 2.75284 29.9004 2.75284C29.1646 2.75284 28.5895 3.11577 28.1752 3.84162C27.7609 4.56416 27.5538 5.58665 27.5538 6.90909C27.5538 7.79072 27.6466 8.53977 27.8322 9.15625C28.0178 9.77273 28.2846 10.2417 28.6326 10.5632C28.984 10.8847 29.4065 11.0455 29.9004 11.0455ZM35.3294 12V11.1051L38.6902 7.42614C39.0846 6.99526 39.4094 6.62074 39.6646 6.30256C39.9198 5.98106 40.1087 5.67945 40.2314 5.39773C40.3573 5.11269 40.4203 4.81439 40.4203 4.50284C40.4203 4.14489 40.3341 3.83499 40.1618 3.57315C39.9927 3.31132 39.7607 3.10914 39.4657 2.96662C39.1708 2.8241 38.8393 2.75284 38.4714 2.75284C38.0803 2.75284 37.7389 2.83404 37.4473 2.99645C37.1589 3.15554 36.9352 3.37926 36.7761 3.66761C36.6203 3.95597 36.5424 4.29403 36.5424 4.68182H35.3691C35.3691 4.08523 35.5067 3.56155 35.7818 3.1108C36.0569 2.66004 36.4314 2.30871 36.9054 2.05682C37.3826 1.80492 37.9179 1.67898 38.5112 1.67898C39.1078 1.67898 39.6364 1.80492 40.0971 2.05682C40.5578 2.30871 40.9191 2.64844 41.1809 3.07599C41.4428 3.50355 41.5737 3.97917 41.5737 4.50284C41.5737 4.87737 41.5057 5.24361 41.3699 5.60156C41.2373 5.9562 41.0053 6.35227 40.6738 6.78977C40.3457 7.22396 39.89 7.75426 39.3066 8.38068L37.0197 10.8267V10.9062H41.7527V12H35.3294ZM47.3855 1.81818V12H46.1525V3.1108H46.0929L43.6071 4.76136V3.50852L46.1525 1.81818H47.3855ZM58.3279 1.81818H59.5609V9.09659C59.5609 9.74621 59.4416 10.2981 59.2029 10.7521C58.9643 11.2062 58.6279 11.5509 58.1937 11.7862C57.7595 12.0215 57.2475 12.1392 56.6575 12.1392C56.1007 12.1392 55.6052 12.0381 55.171 11.8359C54.7368 11.6304 54.3954 11.3388 54.1468 10.9609C53.8983 10.5831 53.774 10.134 53.774 9.61364H54.987C54.987 9.90199 55.0583 10.1539 55.2008 10.3693C55.3467 10.5814 55.5455 10.7472 55.7974 10.8665C56.0493 10.9858 56.336 11.0455 56.6575 11.0455C57.0121 11.0455 57.3137 10.9709 57.5623 10.8217C57.8109 10.6726 57.9998 10.4538 58.1291 10.1655C58.2617 9.87382 58.3279 9.51752 58.3279 9.09659V1.81818ZM64.975 12.1591C64.2856 12.1591 63.6807 11.995 63.1603 11.6669C62.6433 11.3388 62.2389 10.8797 61.9473 10.2898C61.6589 9.69981 61.5147 9.01042 61.5147 8.22159C61.5147 7.42614 61.6589 6.73177 61.9473 6.13849C62.2389 5.54522 62.6433 5.08452 63.1603 4.75639C63.6807 4.42827 64.2856 4.2642 64.975 4.2642C65.6644 4.2642 66.2676 4.42827 66.7846 4.75639C67.305 5.08452 67.7093 5.54522 67.9977 6.13849C68.2894 6.73177 68.4352 7.42614 68.4352 8.22159C68.4352 9.01042 68.2894 9.69981 67.9977 10.2898C67.7093 10.8797 67.305 11.3388 66.7846 11.6669C66.2676 11.995 65.6644 12.1591 64.975 12.1591ZM64.975 11.1051C65.4986 11.1051 65.9295 10.9709 66.2676 10.7024C66.6056 10.4339 66.8559 10.081 67.0183 9.64347C67.1807 9.20597 67.2619 8.73201 67.2619 8.22159C67.2619 7.71117 67.1807 7.23556 67.0183 6.79474C66.8559 6.35393 66.6056 5.99763 66.2676 5.72585C65.9295 5.45407 65.4986 5.31818 64.975 5.31818C64.4513 5.31818 64.0204 5.45407 63.6824 5.72585C63.3443 5.99763 63.094 6.35393 62.9316 6.79474C62.7692 7.23556 62.688 7.71117 62.688 8.22159C62.688 8.73201 62.7692 9.20597 62.9316 9.64347C63.094 10.081 63.3443 10.4339 63.6824 10.7024C64.0204 10.9709 64.4513 11.1051 64.975 11.1051ZM70.3853 12V1.81818H71.5586V5.5767H71.658C71.7442 5.44413 71.8635 5.27509 72.016 5.0696C72.1718 4.8608 72.3938 4.67519 72.6822 4.51278C72.9738 4.34706 73.3683 4.2642 73.8654 4.2642C74.5084 4.2642 75.0752 4.42495 75.5657 4.74645C76.0562 5.06794 76.439 5.52367 76.7141 6.11364C76.9892 6.7036 77.1268 7.39962 77.1268 8.2017C77.1268 9.01042 76.9892 9.71141 76.7141 10.3047C76.439 10.8946 76.0579 11.352 75.5707 11.6768C75.0835 11.9983 74.5217 12.1591 73.8853 12.1591C73.3948 12.1591 73.002 12.0779 72.707 11.9155C72.4121 11.7498 72.185 11.5625 72.0259 11.3537C71.8668 11.1416 71.7442 10.9659 71.658 10.8267H71.5188V12H70.3853ZM71.5387 8.18182C71.5387 8.75852 71.6232 9.26728 71.7923 9.7081C71.9613 10.1456 72.2082 10.4886 72.533 10.7372C72.8578 10.9825 73.2556 11.1051 73.7262 11.1051C74.2167 11.1051 74.6261 10.9759 74.9542 10.7173C75.2856 10.4555 75.5342 10.1042 75.6999 9.66335C75.869 9.21922 75.9535 8.72538 75.9535 8.18182C75.9535 7.64489 75.8706 7.16098 75.7049 6.73011C75.5425 6.29593 75.2956 5.95289 74.9641 5.70099C74.636 5.44579 74.2234 5.31818 73.7262 5.31818C73.2489 5.31818 72.8479 5.43916 72.5231 5.68111C72.1983 5.91974 71.953 6.2545 71.7873 6.68537C71.6216 7.11293 71.5387 7.61174 71.5387 8.18182ZM78.9215 14.8636V4.36364H80.055V5.5767H80.1942C80.2804 5.44413 80.3997 5.27509 80.5522 5.0696C80.708 4.8608 80.93 4.67519 81.2184 4.51278C81.5101 4.34706 81.9045 4.2642 82.4016 4.2642C83.0446 4.2642 83.6114 4.42495 84.1019 4.74645C84.5924 5.06794 84.9753 5.52367 85.2504 6.11364C85.5254 6.7036 85.663 7.39962 85.663 8.2017C85.663 9.01042 85.5254 9.71141 85.2504 10.3047C84.9753 10.8946 84.5941 11.352 84.1069 11.6768C83.6197 11.9983 83.0579 12.1591 82.4215 12.1591C81.931 12.1591 81.5382 12.0779 81.2433 11.9155C80.9483 11.7498 80.7212 11.5625 80.5621 11.3537C80.4031 11.1416 80.2804 10.9659 80.1942 10.8267H80.0948V14.8636H78.9215ZM80.0749 8.18182C80.0749 8.75852 80.1594 9.26728 80.3285 9.7081C80.4975 10.1456 80.7444 10.4886 81.0692 10.7372C81.3941 10.9825 81.7918 11.1051 82.2624 11.1051C82.753 11.1051 83.1623 10.9759 83.4904 10.7173C83.8219 10.4555 84.0704 10.1042 84.2362 9.66335C84.4052 9.21922 84.4897 8.72538 84.4897 8.18182C84.4897 7.64489 84.4068 7.16098 84.2411 6.73011C84.0787 6.29593 83.8318 5.95289 83.5004 5.70099C83.1722 5.44579 82.7596 5.31818 82.2624 5.31818C81.7852 5.31818 81.3841 5.43916 81.0593 5.68111C80.7345 5.91974 80.4892 6.2545 80.3235 6.68537C80.1578 7.11293 80.0749 7.61174 80.0749 8.18182ZM87.4528 12V4.36364H88.6261V12H87.4528ZM88.0494 3.09091C87.8207 3.09091 87.6235 3.01302 87.4577 2.85724C87.2953 2.70147 87.2141 2.5142 87.2141 2.29545C87.2141 2.0767 87.2953 1.88944 87.4577 1.73366C87.6235 1.57789 87.8207 1.5 88.0494 1.5C88.2781 1.5 88.4736 1.57789 88.636 1.73366C88.8017 1.88944 88.8846 2.0767 88.8846 2.29545C88.8846 2.5142 88.8017 2.70147 88.636 2.85724C88.4736 3.01302 88.2781 3.09091 88.0494 3.09091ZM91.9483 1.81818V12H90.775V1.81818H91.9483ZM97.1996 12.1591C96.5102 12.1591 95.9053 11.995 95.3849 11.6669C94.8679 11.3388 94.4635 10.8797 94.1719 10.2898C93.8835 9.69981 93.7393 9.01042 93.7393 8.22159C93.7393 7.42614 93.8835 6.73177 94.1719 6.13849C94.4635 5.54522 94.8679 5.08452 95.3849 4.75639C95.9053 4.42827 96.5102 4.2642 97.1996 4.2642C97.889 4.2642 98.4922 4.42827 99.0092 4.75639C99.5296 5.08452 99.9339 5.54522 100.222 6.13849C100.514 6.73177 100.66 7.42614 100.66 8.22159C100.66 9.01042 100.514 9.69981 100.222 10.2898C99.9339 10.8797 99.5296 11.3388 99.0092 11.6669C98.4922 11.995 97.889 12.1591 97.1996 12.1591ZM97.1996 11.1051C97.7232 11.1051 98.1541 10.9709 98.4922 10.7024C98.8303 10.4339 99.0805 10.081 99.2429 9.64347C99.4053 9.20597 99.4865 8.73201 99.4865 8.22159C99.4865 7.71117 99.4053 7.23556 99.2429 6.79474C99.0805 6.35393 98.8303 5.99763 98.4922 5.72585C98.1541 5.45407 97.7232 5.31818 97.1996 5.31818C96.6759 5.31818 96.245 5.45407 95.907 5.72585C95.5689 5.99763 95.3187 6.35393 95.1562 6.79474C94.9938 7.23556 94.9126 7.71117 94.9126 8.22159C94.9126 8.73201 94.9938 9.20597 95.1562 9.64347C95.3187 10.081 95.5689 10.4339 95.907 10.7024C96.245 10.9709 96.6759 11.1051 97.1996 11.1051ZM105.772 4.36364V5.35795H101.814V4.36364H105.772ZM102.968 2.53409H104.141V9.8125C104.141 10.1439 104.189 10.3925 104.285 10.5582C104.385 10.7206 104.511 10.83 104.663 10.8864C104.819 10.9394 104.983 10.9659 105.155 10.9659C105.285 10.9659 105.391 10.9593 105.474 10.946C105.556 10.9295 105.623 10.9162 105.672 10.9062L105.911 11.9602C105.831 11.9901 105.72 12.0199 105.578 12.0497C105.435 12.0829 105.255 12.0994 105.036 12.0994C104.705 12.0994 104.38 12.0282 104.062 11.8857C103.747 11.7431 103.485 11.526 103.276 11.2344C103.071 10.9427 102.968 10.5748 102.968 10.1307V2.53409ZM115.849 6.36222V7.45597H111.395V6.36222H115.849ZM125.908 1.81818H127.141V9.09659C127.141 9.74621 127.022 10.2981 126.783 10.7521C126.544 11.2062 126.208 11.5509 125.774 11.7862C125.34 12.0215 124.828 12.1392 124.238 12.1392C123.681 12.1392 123.185 12.0381 122.751 11.8359C122.317 11.6304 121.975 11.3388 121.727 10.9609C121.478 10.5831 121.354 10.134 121.354 9.61364H122.567C122.567 9.90199 122.638 10.1539 122.781 10.3693C122.927 10.5814 123.126 10.7472 123.377 10.8665C123.629 10.9858 123.916 11.0455 124.238 11.0455C124.592 11.0455 124.894 10.9709 125.142 10.8217C125.391 10.6726 125.58 10.4538 125.709 10.1655C125.842 9.87382 125.908 9.51752 125.908 9.09659V1.81818ZM132.555 12.1591C131.866 12.1591 131.261 11.995 130.74 11.6669C130.223 11.3388 129.819 10.8797 129.527 10.2898C129.239 9.69981 129.095 9.01042 129.095 8.22159C129.095 7.42614 129.239 6.73177 129.527 6.13849C129.819 5.54522 130.223 5.08452 130.74 4.75639C131.261 4.42827 131.866 4.2642 132.555 4.2642C133.244 4.2642 133.848 4.42827 134.365 4.75639C134.885 5.08452 135.289 5.54522 135.578 6.13849C135.869 6.73177 136.015 7.42614 136.015 8.22159C136.015 9.01042 135.869 9.69981 135.578 10.2898C135.289 10.8797 134.885 11.3388 134.365 11.6669C133.848 11.995 133.244 12.1591 132.555 12.1591ZM132.555 11.1051C133.079 11.1051 133.51 10.9709 133.848 10.7024C134.186 10.4339 134.436 10.081 134.598 9.64347C134.761 9.20597 134.842 8.73201 134.842 8.22159C134.842 7.71117 134.761 7.23556 134.598 6.79474C134.436 6.35393 134.186 5.99763 133.848 5.72585C133.51 5.45407 133.079 5.31818 132.555 5.31818C132.031 5.31818 131.6 5.45407 131.262 5.72585C130.924 5.99763 130.674 6.35393 130.512 6.79474C130.349 7.23556 130.268 7.71117 130.268 8.22159C130.268 8.73201 130.349 9.20597 130.512 9.64347C130.674 10.081 130.924 10.4339 131.262 10.7024C131.6 10.9709 132.031 11.1051 132.555 11.1051ZM137.965 12V1.81818H139.139V5.5767H139.238C139.324 5.44413 139.444 5.27509 139.596 5.0696C139.752 4.8608 139.974 4.67519 140.262 4.51278C140.554 4.34706 140.948 4.2642 141.445 4.2642C142.088 4.2642 142.655 4.42495 143.146 4.74645C143.636 5.06794 144.019 5.52367 144.294 6.11364C144.569 6.7036 144.707 7.39962 144.707 8.2017C144.707 9.01042 144.569 9.71141 144.294 10.3047C144.019 10.8946 143.638 11.352 143.151 11.6768C142.664 11.9983 142.102 12.1591 141.465 12.1591C140.975 12.1591 140.582 12.0779 140.287 11.9155C139.992 11.7498 139.765 11.5625 139.606 11.3537C139.447 11.1416 139.324 10.9659 139.238 10.8267H139.099V12H137.965ZM139.119 8.18182C139.119 8.75852 139.203 9.26728 139.372 9.7081C139.541 10.1456 139.788 10.4886 140.113 10.7372C140.438 10.9825 140.836 11.1051 141.306 11.1051C141.797 11.1051 142.206 10.9759 142.534 10.7173C142.866 10.4555 143.114 10.1042 143.28 9.66335C143.449 9.21922 143.534 8.72538 143.534 8.18182C143.534 7.64489 143.451 7.16098 143.285 6.73011C143.123 6.29593 142.876 5.95289 142.544 5.70099C142.216 5.44579 141.803 5.31818 141.306 5.31818C140.829 5.31818 140.428 5.43916 140.103 5.68111C139.778 5.91974 139.533 6.2545 139.367 6.68537C139.202 7.11293 139.119 7.61174 139.119 8.18182ZM150.598 12V1.81818H154.039C154.837 1.81818 155.49 1.96236 155.997 2.25071C156.508 2.53575 156.886 2.92188 157.131 3.40909C157.376 3.89631 157.499 4.43987 157.499 5.03977C157.499 5.63968 157.376 6.1849 157.131 6.67543C156.889 7.16596 156.514 7.55705 156.007 7.84872C155.5 8.13707 154.851 8.28125 154.058 8.28125H151.593V7.1875H154.019C154.566 7.1875 155.005 7.09304 155.336 6.90412C155.668 6.7152 155.908 6.45999 156.057 6.13849C156.209 5.81368 156.286 5.44744 156.286 5.03977C156.286 4.6321 156.209 4.26752 156.057 3.94602C155.908 3.62453 155.666 3.37263 155.331 3.19034C154.996 3.00473 154.552 2.91193 153.999 2.91193H151.831V12H150.598ZM162.346 12.1591C161.657 12.1591 161.052 11.995 160.531 11.6669C160.014 11.3388 159.61 10.8797 159.318 10.2898C159.03 9.69981 158.886 9.01042 158.886 8.22159C158.886 7.42614 159.03 6.73177 159.318 6.13849C159.61 5.54522 160.014 5.08452 160.531 4.75639C161.052 4.42827 161.657 4.2642 162.346 4.2642C163.035 4.2642 163.639 4.42827 164.156 4.75639C164.676 5.08452 165.08 5.54522 165.369 6.13849C165.66 6.73177 165.806 7.42614 165.806 8.22159C165.806 9.01042 165.66 9.69981 165.369 10.2898C165.08 10.8797 164.676 11.3388 164.156 11.6669C163.639 11.995 163.035 12.1591 162.346 12.1591ZM162.346 11.1051C162.87 11.1051 163.301 10.9709 163.639 10.7024C163.977 10.4339 164.227 10.081 164.389 9.64347C164.552 9.20597 164.633 8.73201 164.633 8.22159C164.633 7.71117 164.552 7.23556 164.389 6.79474C164.227 6.35393 163.977 5.99763 163.639 5.72585C163.301 5.45407 162.87 5.31818 162.346 5.31818C161.822 5.31818 161.392 5.45407 161.053 5.72585C160.715 5.99763 160.465 6.35393 160.303 6.79474C160.14 7.23556 160.059 7.71117 160.059 8.22159C160.059 8.73201 160.14 9.20597 160.303 9.64347C160.465 10.081 160.715 10.4339 161.053 10.7024C161.392 10.9709 161.822 11.1051 162.346 11.1051ZM167.597 12V4.36364H168.731V5.51705H168.81C168.95 5.1392 169.201 4.83262 169.566 4.5973C169.931 4.36198 170.342 4.24432 170.799 4.24432C170.885 4.24432 170.993 4.24597 171.122 4.24929C171.251 4.2526 171.349 4.25758 171.415 4.2642V5.45739C171.376 5.44744 171.285 5.43253 171.142 5.41264C171.003 5.38944 170.855 5.37784 170.7 5.37784C170.328 5.37784 169.997 5.45573 169.705 5.61151C169.417 5.76397 169.188 5.97609 169.019 6.24787C168.853 6.51634 168.771 6.82292 168.771 7.16761V12H167.597ZM176.606 4.36364V5.35795H172.648V4.36364H176.606ZM173.802 2.53409H174.975V9.8125C174.975 10.1439 175.023 10.3925 175.119 10.5582C175.219 10.7206 175.345 10.83 175.497 10.8864C175.653 10.9394 175.817 10.9659 175.989 10.9659C176.119 10.9659 176.225 10.9593 176.308 10.946C176.39 10.9295 176.457 10.9162 176.506 10.9062L176.745 11.9602C176.665 11.9901 176.554 12.0199 176.412 12.0497C176.269 12.0829 176.089 12.0994 175.87 12.0994C175.539 12.0994 175.214 12.0282 174.896 11.8857C174.581 11.7431 174.319 11.526 174.11 11.2344C173.905 10.9427 173.802 10.5748 173.802 10.1307V2.53409ZM180.618 12.179C180.134 12.179 179.695 12.0878 179.3 11.9055C178.906 11.7199 178.593 11.4531 178.361 11.1051C178.129 10.7538 178.013 10.3295 178.013 9.83239C178.013 9.39489 178.099 9.04025 178.271 8.76847C178.444 8.49337 178.674 8.27794 178.962 8.12216C179.251 7.96638 179.569 7.85038 179.917 7.77415C180.268 7.6946 180.621 7.63163 180.976 7.58523C181.44 7.52557 181.816 7.48082 182.104 7.45099C182.396 7.41785 182.608 7.36316 182.741 7.28693C182.877 7.2107 182.945 7.07812 182.945 6.8892V6.84943C182.945 6.3589 182.81 5.97775 182.542 5.70597C182.277 5.43419 181.874 5.2983 181.334 5.2983C180.774 5.2983 180.335 5.42093 180.016 5.66619C179.698 5.91146 179.474 6.1733 179.345 6.4517L178.232 6.05398C178.43 5.58996 178.696 5.22869 179.027 4.97017C179.362 4.70833 179.726 4.52604 180.121 4.4233C180.518 4.31723 180.91 4.2642 181.294 4.2642C181.539 4.2642 181.821 4.29403 182.139 4.35369C182.461 4.41004 182.771 4.5277 183.069 4.70668C183.371 4.88565 183.621 5.15578 183.82 5.51705C184.018 5.87831 184.118 6.36222 184.118 6.96875V12H182.945V10.9659H182.885C182.805 11.1316 182.673 11.3089 182.487 11.4979C182.302 11.6868 182.055 11.8475 181.746 11.9801C181.438 12.1127 181.062 12.179 180.618 12.179ZM180.797 11.125C181.261 11.125 181.652 11.0339 181.97 10.8516C182.292 10.6693 182.534 10.4339 182.696 10.1456C182.862 9.85724 182.945 9.55398 182.945 9.2358V8.16193C182.895 8.22159 182.786 8.27628 182.616 8.32599C182.451 8.3724 182.259 8.41383 182.04 8.45028C181.824 8.48343 181.614 8.51326 181.408 8.53977C181.206 8.56297 181.042 8.58286 180.916 8.59943C180.611 8.6392 180.326 8.70384 180.061 8.79332C179.799 8.8795 179.587 9.01042 179.425 9.18608C179.266 9.35843 179.186 9.59375 179.186 9.89205C179.186 10.2997 179.337 10.608 179.638 10.8168C179.943 11.0223 180.33 11.125 180.797 11.125ZM187.433 1.81818V12H186.259V1.81818H187.433ZM190.437 12.0795C190.192 12.0795 189.981 11.9917 189.805 11.8161C189.63 11.6404 189.542 11.4299 189.542 11.1847C189.542 10.9394 189.63 10.7289 189.805 10.5533C189.981 10.3776 190.192 10.2898 190.437 10.2898C190.682 10.2898 190.893 10.3776 191.068 10.5533C191.244 10.7289 191.332 10.9394 191.332 11.1847C191.332 11.3471 191.29 11.4962 191.207 11.6321C191.128 11.768 191.02 11.8774 190.884 11.9602C190.752 12.0398 190.603 12.0795 190.437 12.0795ZM197.951 12H196.659L200.397 1.81818H201.67L205.409 12H204.116L201.074 3.42898H200.994L197.951 12ZM198.429 8.02273H203.639V9.11648H198.429V8.02273ZM208.009 1.81818V12H206.836V1.81818H208.009ZM211.331 1.81818V12H210.158V1.81818H211.331ZM217.418 12V4.36364H218.551V5.51705H218.631C218.77 5.1392 219.022 4.83262 219.386 4.5973C219.751 4.36198 220.162 4.24432 220.619 4.24432C220.705 4.24432 220.813 4.24597 220.942 4.24929C221.072 4.2526 221.17 4.25758 221.236 4.2642V5.45739C221.196 5.44744 221.105 5.43253 220.962 5.41264C220.823 5.38944 220.676 5.37784 220.52 5.37784C220.149 5.37784 219.817 5.45573 219.526 5.61151C219.237 5.76397 219.009 5.97609 218.839 6.24787C218.674 6.51634 218.591 6.82292 218.591 7.16761V12H217.418ZM222.627 12V4.36364H223.8V12H222.627ZM223.223 3.09091C222.994 3.09091 222.797 3.01302 222.632 2.85724C222.469 2.70147 222.388 2.5142 222.388 2.29545C222.388 2.0767 222.469 1.88944 222.632 1.73366C222.797 1.57789 222.994 1.5 223.223 1.5C223.452 1.5 223.647 1.57789 223.81 1.73366C223.976 1.88944 224.058 2.0767 224.058 2.29545C224.058 2.5142 223.976 2.70147 223.81 2.85724C223.647 3.01302 223.452 3.09091 223.223 3.09091ZM229.031 15.0227C228.464 15.0227 227.977 14.9498 227.57 14.804C227.162 14.6615 226.822 14.4725 226.55 14.2372C226.282 14.0052 226.068 13.7566 225.909 13.4915L226.844 12.8352C226.95 12.9744 227.084 13.1335 227.246 13.3125C227.409 13.4948 227.631 13.6522 227.913 13.7848C228.198 13.9207 228.571 13.9886 229.031 13.9886C229.648 13.9886 230.156 13.8395 230.558 13.5412C230.959 13.2429 231.159 12.7756 231.159 12.1392V10.5881H231.06C230.973 10.7273 230.851 10.8996 230.692 11.1051C230.536 11.3073 230.311 11.4879 230.016 11.647C229.724 11.8028 229.33 11.8807 228.832 11.8807C228.216 11.8807 227.662 11.7348 227.172 11.4432C226.685 11.1515 226.299 10.7273 226.013 10.1705C225.732 9.61364 225.591 8.9375 225.591 8.14205C225.591 7.35985 225.728 6.67874 226.004 6.09872C226.279 5.51539 226.661 5.06463 227.152 4.74645C227.643 4.42495 228.209 4.2642 228.852 4.2642C229.349 4.2642 229.744 4.34706 230.036 4.51278C230.33 4.67519 230.556 4.8608 230.712 5.0696C230.871 5.27509 230.993 5.44413 231.08 5.5767H231.199V4.36364H232.332V12.2188C232.332 12.875 232.183 13.4086 231.885 13.8196C231.59 14.2339 231.192 14.5372 230.692 14.7294C230.195 14.925 229.641 15.0227 229.031 15.0227ZM228.991 10.8267C229.462 10.8267 229.86 10.719 230.185 10.5036C230.509 10.2881 230.756 9.97822 230.925 9.57386C231.094 9.16951 231.179 8.68561 231.179 8.12216C231.179 7.57197 231.096 7.08641 230.93 6.66548C230.765 6.24455 230.519 5.91477 230.195 5.67614C229.87 5.4375 229.469 5.31818 228.991 5.31818C228.494 5.31818 228.08 5.44413 227.749 5.69602C227.42 5.94792 227.174 6.28598 227.008 6.71023C226.845 7.13447 226.764 7.60511 226.764 8.12216C226.764 8.65246 226.847 9.12145 227.013 9.52912C227.182 9.93348 227.43 10.2517 227.759 10.4837C228.09 10.7124 228.501 10.8267 228.991 10.8267ZM235.653 7.40625V12H234.48V1.81818H235.653V5.55682H235.753C235.932 5.16241 236.2 4.84919 236.558 4.61719C236.92 4.38187 237.4 4.2642 238 4.2642C238.52 4.2642 238.976 4.36861 239.367 4.57741C239.758 4.78291 240.062 5.09943 240.277 5.52699C240.496 5.95123 240.605 6.49148 240.605 7.14773V12H239.432V7.22727C239.432 6.62074 239.274 6.15175 238.96 5.82031C238.648 5.48556 238.215 5.31818 237.662 5.31818C237.277 5.31818 236.933 5.39938 236.628 5.56179C236.326 5.72419 236.088 5.96117 235.912 6.27273C235.74 6.58428 235.653 6.96212 235.653 7.40625ZM246.073 4.36364V5.35795H242.115V4.36364H246.073ZM243.269 2.53409H244.442V9.8125C244.442 10.1439 244.49 10.3925 244.586 10.5582C244.686 10.7206 244.811 10.83 244.964 10.8864C245.12 10.9394 245.284 10.9659 245.456 10.9659C245.585 10.9659 245.691 10.9593 245.774 10.946C245.857 10.9295 245.923 10.9162 245.973 10.9062L246.212 11.9602C246.132 11.9901 246.021 12.0199 245.879 12.0497C245.736 12.0829 245.556 12.0994 245.337 12.0994C245.005 12.0994 244.681 12.0282 244.362 11.8857C244.048 11.7431 243.786 11.526 243.577 11.2344C243.371 10.9427 243.269 10.5748 243.269 10.1307V2.53409ZM253.11 6.07386L252.056 6.37216C251.99 6.1965 251.892 6.0258 251.763 5.86009C251.637 5.69105 251.464 5.55185 251.246 5.44247C251.027 5.3331 250.747 5.27841 250.405 5.27841C249.938 5.27841 249.549 5.38613 249.237 5.60156C248.929 5.81368 248.775 6.08381 248.775 6.41193C248.775 6.7036 248.881 6.93395 249.093 7.10298C249.305 7.27202 249.636 7.41288 250.087 7.52557L251.221 7.80398C251.903 7.9697 252.412 8.22325 252.747 8.56463C253.082 8.9027 253.249 9.33854 253.249 9.87216C253.249 10.3097 253.123 10.7008 252.871 11.0455C252.623 11.3902 252.275 11.6619 251.827 11.8608C251.38 12.0597 250.859 12.1591 250.266 12.1591C249.487 12.1591 248.843 11.9901 248.332 11.652C247.822 11.3139 247.499 10.8201 247.363 10.1705L248.476 9.89205C248.582 10.303 248.783 10.6113 249.078 10.8168C249.376 11.0223 249.766 11.125 250.246 11.125C250.793 11.125 251.227 11.009 251.549 10.777C251.874 10.5417 252.036 10.2599 252.036 9.93182C252.036 9.66667 251.943 9.4446 251.758 9.26562C251.572 9.08333 251.287 8.94744 250.903 8.85795L249.63 8.55966C248.93 8.39394 248.417 8.13707 248.089 7.78906C247.764 7.43774 247.601 6.99858 247.601 6.47159C247.601 6.04072 247.722 5.65956 247.964 5.32812C248.21 4.99669 248.543 4.73651 248.964 4.54758C249.388 4.35866 249.868 4.2642 250.405 4.2642C251.161 4.2642 251.754 4.42992 252.185 4.76136C252.619 5.0928 252.928 5.5303 253.11 6.07386ZM259.112 12V1.81818H262.552C263.348 1.81818 264.001 1.95407 264.511 2.22585C265.021 2.49432 265.399 2.86387 265.645 3.33452C265.89 3.80516 266.012 4.34044 266.012 4.94034C266.012 5.54025 265.89 6.07221 265.645 6.53622C265.399 7.00024 265.023 7.36482 264.516 7.62997C264.009 7.89181 263.361 8.02273 262.572 8.02273H259.788V6.90909H262.532C263.076 6.90909 263.513 6.82955 263.845 6.67045C264.18 6.51136 264.422 6.28598 264.571 5.99432C264.723 5.69934 264.799 5.34801 264.799 4.94034C264.799 4.53267 264.723 4.17637 264.571 3.87145C264.418 3.56652 264.175 3.3312 263.84 3.16548C263.505 2.99645 263.063 2.91193 262.512 2.91193H260.345V12H259.112ZM263.904 7.42614L266.41 12H264.978L262.512 7.42614H263.904ZM273.317 6.07386L272.263 6.37216C272.197 6.1965 272.099 6.0258 271.97 5.86009C271.844 5.69105 271.671 5.55185 271.453 5.44247C271.234 5.3331 270.954 5.27841 270.612 5.27841C270.145 5.27841 269.756 5.38613 269.444 5.60156C269.136 5.81368 268.982 6.08381 268.982 6.41193C268.982 6.7036 269.088 6.93395 269.3 7.10298C269.512 7.27202 269.843 7.41288 270.294 7.52557L271.428 7.80398C272.11 7.9697 272.619 8.22325 272.954 8.56463C273.289 8.9027 273.456 9.33854 273.456 9.87216C273.456 10.3097 273.33 10.7008 273.078 11.0455C272.83 11.3902 272.482 11.6619 272.034 11.8608C271.587 12.0597 271.066 12.1591 270.473 12.1591C269.694 12.1591 269.05 11.9901 268.539 11.652C268.029 11.3139 267.706 10.8201 267.57 10.1705L268.683 9.89205C268.789 10.303 268.99 10.6113 269.285 10.8168C269.583 11.0223 269.973 11.125 270.453 11.125C271 11.125 271.434 11.009 271.756 10.777C272.081 10.5417 272.243 10.2599 272.243 9.93182C272.243 9.66667 272.15 9.4446 271.965 9.26562C271.779 9.08333 271.494 8.94744 271.11 8.85795L269.837 8.55966C269.137 8.39394 268.624 8.13707 268.296 7.78906C267.971 7.43774 267.808 6.99858 267.808 6.47159C267.808 6.04072 267.929 5.65956 268.171 5.32812C268.417 4.99669 268.75 4.73651 269.171 4.54758C269.595 4.35866 270.075 4.2642 270.612 4.2642C271.368 4.2642 271.961 4.42992 272.392 4.76136C272.826 5.0928 273.135 5.5303 273.317 6.07386ZM278.424 12.1591C277.688 12.1591 277.054 11.9967 276.52 11.6719C275.99 11.3438 275.58 10.8864 275.292 10.2997C275.007 9.70975 274.864 9.02367 274.864 8.24148C274.864 7.45928 275.007 6.76989 275.292 6.1733C275.58 5.57339 275.981 5.10606 276.495 4.77131C277.012 4.43324 277.615 4.2642 278.305 4.2642C278.702 4.2642 279.095 4.33049 279.483 4.46307C279.871 4.59564 280.224 4.81108 280.542 5.10938C280.86 5.40436 281.114 5.79545 281.303 6.28267C281.491 6.76989 281.586 7.36979 281.586 8.08239V8.57955H275.7V7.56534H280.393C280.393 7.13447 280.307 6.75 280.134 6.41193C279.965 6.07386 279.723 5.80705 279.408 5.61151C279.097 5.41596 278.729 5.31818 278.305 5.31818C277.837 5.31818 277.433 5.43419 277.092 5.66619C276.754 5.89489 276.493 6.19318 276.311 6.56108C276.129 6.92898 276.038 7.32339 276.038 7.74432V8.42045C276.038 8.99716 276.137 9.48603 276.336 9.88707C276.538 10.2848 276.818 10.5881 277.176 10.7969C277.534 11.0024 277.95 11.1051 278.424 11.1051C278.732 11.1051 279.011 11.062 279.259 10.9759C279.511 10.8864 279.728 10.7538 279.911 10.5781C280.093 10.3991 280.234 10.1771 280.333 9.91193L281.467 10.2301C281.347 10.6146 281.147 10.9527 280.865 11.2443C280.583 11.5327 280.235 11.758 279.821 11.9205C279.407 12.0795 278.941 12.1591 278.424 12.1591ZM283.371 12V4.36364H284.504V5.51705H284.584C284.723 5.1392 284.975 4.83262 285.339 4.5973C285.704 4.36198 286.115 4.24432 286.572 4.24432C286.659 4.24432 286.766 4.24597 286.896 4.24929C287.025 4.2526 287.123 4.25758 287.189 4.2642V5.45739C287.149 5.44744 287.058 5.43253 286.915 5.41264C286.776 5.38944 286.629 5.37784 286.473 5.37784C286.102 5.37784 285.77 5.45573 285.479 5.61151C285.19 5.76397 284.962 5.97609 284.793 6.24787C284.627 6.51634 284.544 6.82292 284.544 7.16761V12H283.371ZM295.056 4.36364L292.233 12H291.039L288.216 4.36364H289.488L291.596 10.4489H291.676L293.784 4.36364H295.056ZM299.533 12.1591C298.798 12.1591 298.163 11.9967 297.629 11.6719C297.099 11.3438 296.69 10.8864 296.401 10.2997C296.116 9.70975 295.974 9.02367 295.974 8.24148C295.974 7.45928 296.116 6.76989 296.401 6.1733C296.69 5.57339 297.091 5.10606 297.604 4.77131C298.121 4.43324 298.725 4.2642 299.414 4.2642C299.812 4.2642 300.205 4.33049 300.592 4.46307C300.98 4.59564 301.333 4.81108 301.651 5.10938C301.969 5.40436 302.223 5.79545 302.412 6.28267C302.601 6.76989 302.695 7.36979 302.695 8.08239V8.57955H296.809V7.56534H301.502C301.502 7.13447 301.416 6.75 301.244 6.41193C301.075 6.07386 300.833 5.80705 300.518 5.61151C300.206 5.41596 299.838 5.31818 299.414 5.31818C298.947 5.31818 298.542 5.43419 298.201 5.66619C297.863 5.89489 297.603 6.19318 297.42 6.56108C297.238 6.92898 297.147 7.32339 297.147 7.74432V8.42045C297.147 8.99716 297.246 9.48603 297.445 9.88707C297.647 10.2848 297.928 10.5881 298.286 10.7969C298.643 11.0024 299.059 11.1051 299.533 11.1051C299.842 11.1051 300.12 11.062 300.369 10.9759C300.621 10.8864 300.838 10.7538 301.02 10.5781C301.202 10.3991 301.343 10.1771 301.442 9.91193L302.576 10.2301C302.457 10.6146 302.256 10.9527 301.974 11.2443C301.693 11.5327 301.345 11.758 300.93 11.9205C300.516 12.0795 300.05 12.1591 299.533 12.1591ZM307.364 12.1591C306.727 12.1591 306.165 11.9983 305.678 11.6768C305.191 11.352 304.81 10.8946 304.535 10.3047C304.26 9.71141 304.122 9.01042 304.122 8.2017C304.122 7.39962 304.26 6.7036 304.535 6.11364C304.81 5.52367 305.193 5.06794 305.683 4.74645C306.174 4.42495 306.741 4.2642 307.384 4.2642C307.881 4.2642 308.273 4.34706 308.562 4.51278C308.853 4.67519 309.076 4.8608 309.228 5.0696C309.384 5.27509 309.505 5.44413 309.591 5.5767H309.69V1.81818H310.864V12H309.73V10.8267H309.591C309.505 10.9659 309.382 11.1416 309.223 11.3537C309.064 11.5625 308.837 11.7498 308.542 11.9155C308.247 12.0779 307.854 12.1591 307.364 12.1591ZM307.523 11.1051C307.993 11.1051 308.391 10.9825 308.716 10.7372C309.041 10.4886 309.288 10.1456 309.457 9.7081C309.626 9.26728 309.71 8.75852 309.71 8.18182C309.71 7.61174 309.627 7.11293 309.462 6.68537C309.296 6.2545 309.051 5.91974 308.726 5.68111C308.401 5.43916 308 5.31818 307.523 5.31818C307.026 5.31818 306.611 5.44579 306.28 5.70099C305.952 5.95289 305.705 6.29593 305.539 6.73011C305.377 7.16098 305.295 7.64489 305.295 8.18182C305.295 8.72538 305.378 9.21922 305.544 9.66335C305.713 10.1042 305.962 10.4555 306.29 10.7173C306.621 10.9759 307.032 11.1051 307.523 11.1051Z" fill="#767F8C"/>
</svg>
