<svg width="130" height="20" viewBox="0 0 130 20" fill="none" xmlns="http://www.w3.org/2000/svg">
<path d="M8.17415 3.32083H9.99998V0.140833C9.68498 0.0975 8.60165 0 7.33998 0C4.70748 0 2.90415 1.65583 2.90415 4.69917V7.5H-0.000854492V11.055H2.90415V20H6.46581V11.0558H9.25331L9.69581 7.50083H6.46498V5.05167C6.46581 4.02417 6.74248 3.32083 8.17415 3.32083Z" fill="#767F8C"/>
<g clip-path="url(#clip0_0_966)">
<path d="M49.5879 5.19878C49.3573 4.342 48.6818 3.66665 47.8252 3.43594C46.2601 3.00763 39.9998 3.00763 39.9998 3.00763C39.9998 3.00763 33.7396 3.00763 32.1745 3.41961C31.3343 3.65017 30.6424 4.34216 30.4118 5.19878C30 6.76372 30 10.0092 30 10.0092C30 10.0092 30 13.2711 30.4118 14.8197C30.6425 15.6763 31.3179 16.3518 32.1746 16.5826C33.7561 17.0109 39.9999 17.0109 39.9999 17.0109C39.9999 17.0109 46.2601 17.0109 47.8252 16.5989C48.682 16.3683 49.3573 15.6928 49.5881 14.8362C49.9999 13.2711 49.9999 10.0257 49.9999 10.0257C49.9999 10.0257 50.0164 6.76372 49.5879 5.19878Z" fill="#767F8C"/>
<path d="M38.0065 13.0077L43.2124 10.0093L38.0065 7.01096V13.0077Z" fill="#18191C"/>
</g>
<g clip-path="url(#clip1_0_966)">
<path d="M89.9804 5.88005C89.9335 4.81738 89.7617 4.0868 89.5155 3.45374C89.2616 2.78176 88.8709 2.18014 88.359 1.68002C87.8589 1.1721 87.2533 0.777435 86.5891 0.527447C85.9524 0.281274 85.2256 0.109427 84.1629 0.0625732C83.0923 0.0117516 82.7524 0 80.0371 0C77.3217 0 76.9818 0.0117516 75.9152 0.0586052C74.8525 0.105459 74.1219 0.277459 73.489 0.523479C72.8169 0.777435 72.2153 1.16814 71.7151 1.68002C71.2072 2.18014 70.8127 2.78573 70.5626 3.44992C70.3164 4.0868 70.1446 4.81341 70.0977 5.87609C70.0469 6.9467 70.0351 7.28658 70.0351 10.002C70.0351 12.7173 70.0469 13.0572 70.0937 14.1239C70.1406 15.1865 70.3126 15.9171 70.5588 16.5502C70.8127 17.2221 71.2072 17.8238 71.7151 18.3239C72.2153 18.8318 72.8209 19.2265 73.485 19.4765C74.1219 19.7226 74.8485 19.8945 75.9114 19.9413C76.9778 19.9883 77.3179 19.9999 80.0332 19.9999C82.7486 19.9999 83.0885 19.9883 84.1551 19.9413C85.2178 19.8945 85.9484 19.7226 86.5813 19.4765C87.9254 18.9568 88.9881 17.8941 89.5077 16.5502C89.7538 15.9133 89.9258 15.1865 89.9726 14.1239C90.0195 13.0572 90.0312 12.7173 90.0312 10.002C90.0312 7.28658 90.0273 6.9467 89.9804 5.88005ZM88.1794 14.0457C88.1363 15.0225 87.9723 15.5499 87.8355 15.9015C87.4994 16.7728 86.8079 17.4643 85.9366 17.8004C85.585 17.9372 85.0538 18.1012 84.0808 18.1441C83.0259 18.1911 82.7095 18.2027 80.041 18.2027C77.3725 18.2027 77.0522 18.1911 76.0011 18.1441C75.0243 18.1012 74.4969 17.9372 74.1453 17.8004C73.7117 17.6402 73.317 17.3862 72.9967 17.0541C72.6646 16.7298 72.4106 16.3391 72.2504 15.9055C72.1136 15.5539 71.9496 15.0225 71.9067 14.0497C71.8597 12.9948 71.8481 12.6783 71.8481 10.0097C71.8481 7.34122 71.8597 7.02087 71.9067 5.96995C71.9496 4.99319 72.1136 4.46575 72.2504 4.11412C72.4106 3.68038 72.6646 3.28586 73.0006 2.96536C73.3248 2.63327 73.7155 2.37931 74.1492 2.21921C74.5009 2.08247 75.0323 1.9184 76.0051 1.87537C77.06 1.82851 77.3765 1.81676 80.0448 1.81676C82.7173 1.81676 83.0337 1.82851 84.0848 1.87537C85.0615 1.9184 85.589 2.08247 85.9406 2.21921C86.3742 2.37931 86.7689 2.63327 87.0892 2.96536C87.4213 3.28967 87.6753 3.68038 87.8355 4.11412C87.9723 4.46575 88.1363 4.99701 88.1794 5.96995C88.2262 7.02484 88.238 7.34122 88.238 10.0097C88.238 12.6783 88.2262 12.9908 88.1794 14.0457Z" fill="#767F8C"/>
<path d="M80.0371 4.86411C77.2007 4.86411 74.8994 7.16527 74.8994 10.0018C74.8994 12.8384 77.2007 15.1395 80.0371 15.1395C82.8736 15.1395 85.1748 12.8384 85.1748 10.0018C85.1748 7.16527 82.8736 4.86411 80.0371 4.86411ZM80.0371 13.3345C78.197 13.3345 76.7044 11.8421 76.7044 10.0018C76.7044 8.16156 78.197 6.66911 80.0371 6.66911C81.8773 6.66911 83.3698 8.16156 83.3698 10.0018C83.3698 11.8421 81.8773 13.3345 80.0371 13.3345Z" fill="#767F8C"/>
<path d="M86.5775 4.6611C86.5775 5.32346 86.0404 5.86052 85.3779 5.86052C84.7155 5.86052 84.1785 5.32346 84.1785 4.6611C84.1785 3.99858 84.7155 3.46167 85.3779 3.46167C86.0404 3.46167 86.5775 3.99858 86.5775 4.6611Z" fill="#767F8C"/>
</g>
<g clip-path="url(#clip2_0_966)">
<path d="M130 3.79875C129.256 4.125 128.464 4.34125 127.637 4.44625C128.487 3.93875 129.136 3.14125 129.441 2.18C128.649 2.6525 127.774 2.98625 126.841 3.1725C126.089 2.37125 125.016 1.875 123.846 1.875C121.576 1.875 119.749 3.7175 119.749 5.97625C119.749 6.30125 119.776 6.61375 119.844 6.91125C116.435 6.745 113.419 5.11125 111.392 2.6225C111.039 3.23625 110.831 3.93875 110.831 4.695C110.831 6.115 111.562 7.37375 112.652 8.1025C111.994 8.09 111.347 7.89875 110.8 7.5975C110.8 7.61 110.8 7.62625 110.8 7.6425C110.8 9.635 112.221 11.29 114.085 11.6712C113.751 11.7625 113.388 11.8062 113.01 11.8062C112.747 11.8062 112.482 11.7913 112.234 11.7362C112.765 13.36 114.273 14.5538 116.065 14.5925C114.67 15.6838 112.899 16.3412 110.981 16.3412C110.645 16.3412 110.322 16.3263 110 16.285C111.816 17.4563 113.969 18.125 116.29 18.125C123.835 18.125 127.96 11.875 127.96 6.4575C127.96 6.27625 127.954 6.10125 127.945 5.9275C128.759 5.35 129.442 4.62875 130 3.79875Z" fill="#767F8C"/>
</g>
<defs>
<clipPath id="clip0_0_966">
<rect width="20" height="20" fill="white" transform="translate(30)"/>
</clipPath>
<clipPath id="clip1_0_966">
<rect width="20" height="20" fill="white" transform="translate(70)"/>
</clipPath>
<clipPath id="clip2_0_966">
<rect width="20" height="20" fill="white" transform="translate(110)"/>
</clipPath>
</defs>
</svg>
